<svg width="33" height="33" viewBox="0 0 33 33" fill="none" xmlns="http://www.w3.org/2000/svg">
<path d="M16 8.74992H19.85C21.3902 8.74992 22.1602 8.74992 22.7485 9.04965C23.2659 9.3133 23.6866 9.734 23.9503 10.2514C24.25 10.8397 24.25 11.6098 24.25 13.1499V20.8499C24.25 22.3901 24.25 23.1601 23.9503 23.7484C23.6866 24.2658 23.2659 24.6865 22.7485 24.9502C22.1602 25.2499 21.3902 25.2499 19.85 25.2499H12.15C10.6099 25.2499 9.83979 25.2499 9.25154 24.9502C8.73409 24.6865 8.31339 24.2658 8.04974 23.7484C7.75001 23.1601 7.75001 22.3901 7.75001 20.8499V16.9999M12.3333 17.9166V21.5833M19.6667 16.0833V21.5833M16 12.4166V21.5833M9.58334 13.3333V7.83325M6.83334 10.5833H12.3333" stroke="black" stroke-width="2" stroke-linecap="round" stroke-linejoin="round"/>
<rect x="1" y="1" width="31" height="31" rx="6" stroke="#DBDDE1" stroke-width="2"/>
</svg>
