<svg width="33" height="33" viewBox="0 0 33 33" fill="none" xmlns="http://www.w3.org/2000/svg">
<path d="M20.5833 14.25L15.6019 19.2315C15.4204 19.413 15.3296 19.5037 15.225 19.5377C15.1329 19.5676 15.0338 19.5676 14.9417 19.5377C14.8371 19.5037 14.7463 19.413 14.5648 19.2315L12.8519 17.5185C12.6704 17.337 12.5796 17.2463 12.475 17.2123C12.3829 17.1824 12.2838 17.1824 12.1917 17.2123C12.087 17.2463 11.9963 17.337 11.8148 17.5185L7.75 21.5833M20.5833 14.25H16.9167M20.5833 14.25V17.9167M12.15 25.25H19.85C21.3901 25.25 22.1602 25.25 22.7485 24.9503C23.2659 24.6866 23.6866 24.2659 23.9503 23.7485C24.25 23.1602 24.25 22.3901 24.25 20.85V13.15C24.25 11.6099 24.25 10.8398 23.9503 10.2515C23.6866 9.73408 23.2659 9.31338 22.7485 9.04973C22.1602 8.75 21.3901 8.75 19.85 8.75H12.15C10.6099 8.75 9.83978 8.75 9.25153 9.04973C8.73408 9.31338 8.31338 9.73408 8.04973 10.2515C7.75 10.8398 7.75 11.6099 7.75 13.15V20.85C7.75 22.3901 7.75 23.1602 8.04973 23.7485C8.31338 24.2659 8.73408 24.6866 9.25153 24.9503C9.83978 25.25 10.6099 25.25 12.15 25.25Z" stroke="black" stroke-width="2" stroke-linecap="round" stroke-linejoin="round"/>
<rect x="1" y="1" width="31" height="31" rx="6" stroke="#DBDDE1" stroke-width="2"/>
</svg>
