<svg width="140" height="26" viewBox="0 0 140 26" fill="none" xmlns="http://www.w3.org/2000/svg">
<path d="M11.8131 23.5021V25.3992H10.9452C8.62165 25.3992 7.06356 25.074 6.27051 24.4241C5.48654 23.7742 5.09456 22.4789 5.09456 20.5377V17.3892C5.09456 16.063 4.84257 15.1452 4.33897 14.636C3.83499 14.1264 2.92049 13.8717 1.59547 13.8717H0.741699V11.9878H1.59547C2.92995 11.9878 3.84445 11.7375 4.33897 11.2368C4.84257 10.7275 5.09456 9.81867 5.09456 8.5099V5.34822C5.09456 3.40698 5.48654 2.11606 6.27051 1.475C7.06356 0.825 8.62165 0.500036 10.9452 0.5H11.8131V2.3839H10.8612C9.54561 2.38394 8.68711 2.57714 8.28604 2.9636C7.8846 3.35 7.68407 4.16232 7.68407 5.40093V8.66802C7.68407 10.0469 7.46954 11.048 7.0401 11.6716C6.62012 12.2952 5.89707 12.7168 4.87057 12.9362C5.90653 13.1734 6.63411 13.6039 7.0541 14.2275C7.47408 14.8511 7.68407 15.8479 7.68407 17.2179V20.485C7.68407 21.7236 7.8846 22.5359 8.28604 22.9223C8.46794 23.0974 9.54561 23.5021 10.8612 23.5021H11.8131Z" fill="#7347D2"/>
<path d="M39.9176 23.5021V25.3992H40.7852C43.1087 25.3992 44.6672 25.0744 45.4603 24.4244C46.2443 23.7745 46.6363 22.4789 46.6359 20.538V17.3895C46.6363 16.0632 46.8879 15.1455 47.3919 14.6359C47.8959 14.1266 48.8104 13.872 50.1354 13.872H50.989V11.988H50.1354C48.8009 11.988 47.8864 11.7377 47.3919 11.237C46.8879 10.7277 46.6363 9.81851 46.6359 8.51009V5.34802C46.6363 3.40712 46.2443 2.11604 45.4603 1.47476C44.6672 0.825003 43.1087 0.500036 40.7852 0.5H39.9176V2.38392H40.8692C42.1851 2.38392 43.0437 2.57716 43.4447 2.96374C43.8462 3.35014 44.0467 4.16247 44.0467 5.40073V8.66786C44.0467 10.0468 44.2613 11.0482 44.6903 11.6718C45.1103 12.2954 45.8337 12.717 46.8599 12.9364C45.8243 13.1736 45.0963 13.6038 44.6767 14.2274C44.2567 14.851 44.0467 15.8481 44.0467 17.2182V20.4853C44.0467 21.7235 43.8462 22.5362 43.4447 22.9226C43.0437 23.309 42.1851 23.5021 40.8692 23.5021H39.9176Z" fill="#7347D2"/>
<path d="M18.981 17.1743C18.744 16.4495 18.6265 15.5348 18.6265 14.3047C18.6265 13.0743 18.744 12.1576 18.981 11.4347C19.6432 9.36056 21.3972 8.22729 23.6938 8.22729C25.3995 8.22729 26.7499 8.92689 27.6509 10.0365C27.7205 10.1323 27.7441 10.2768 27.627 10.373L26.1353 11.6997C26.0163 11.7968 25.8983 11.7727 25.8029 11.6523C25.2339 11.0015 24.6419 10.6389 23.6943 10.6389C22.6762 10.6389 21.8952 11.1456 21.5627 12.1585C21.3746 12.7387 21.3262 13.4132 21.3262 14.3052C21.3262 15.1973 21.3741 15.8964 21.5627 16.4756C21.8947 17.4634 22.6762 17.9701 23.6943 17.9701C24.6419 17.9701 25.2339 17.608 25.8029 16.9586C25.8983 16.8363 26.0163 16.8363 26.1353 16.933L27.627 18.2597C27.7441 18.3559 27.7205 18.4767 27.6509 18.5976C26.7504 19.6835 25.3999 20.3822 23.6938 20.3822C21.3972 20.3812 19.6432 19.247 18.981 17.1743Z" fill="#7347D2"/>
<path d="M53.5439 23.0623V25.2596C53.5439 25.4042 53.6389 25.5 53.7814 25.5H61.8578C62.0022 25.5 62.0976 25.4037 62.0976 25.2596V23.0623C62.0976 22.9196 62.0022 22.8234 61.8578 22.8234H53.7814C53.6389 22.8234 53.5439 22.9196 53.5439 23.0623Z" fill="#7347D2"/>
<path d="M96.5866 3.93439H94.4073C94.2651 3.93439 94.1702 4.03105 94.1702 4.17425V9.8166V14.4837V14.5204V14.5581V15.1777H94.1584C94.1323 15.8434 94.0603 16.2808 93.9339 16.6908C93.6256 17.6549 92.8897 18.1858 91.802 18.1858C90.7373 18.1858 90.0029 17.6549 89.6939 16.6908C89.5287 16.1594 89.4567 15.5817 89.4567 14.5204C89.4567 13.4601 89.5279 12.8799 89.6939 12.351C89.9966 11.4054 90.7072 10.8765 91.738 10.8555L92.6684 10.856C92.8106 10.856 92.9055 10.7597 92.9055 10.6161V8.68373C92.9055 8.53965 92.8106 8.44339 92.6684 8.44339H92.5545L91.1483 8.44299C91.1372 8.44299 91.1262 8.44299 91.1159 8.44299C91.1048 8.44299 91.0954 8.44299 91.0851 8.44299H91.0527C89.1437 8.46299 87.7462 9.40237 87.1605 11.2391C86.8763 12.1325 86.7583 12.9529 86.7583 14.5195C86.7583 16.0865 86.8763 16.9074 87.1605 17.7989C87.7525 19.6556 89.1746 20.5965 91.1159 20.5965C92.6565 20.5965 93.6035 20.0191 94.1481 19.2219H94.171V20.0898C94.171 20.2357 94.2659 20.3315 94.4089 20.3315H96.5882C96.7297 20.3315 96.8253 20.2362 96.8253 20.0898V4.17425C96.8238 4.03057 96.7281 3.93439 96.5866 3.93439Z" fill="#7347D2"/>
<path d="M102.668 13.1454C102.608 13.1454 102.566 13.1868 102.566 13.249V13.3179V13.5196V14.797V14.9686V15.0675C102.566 15.1299 102.608 15.1717 102.668 15.1717H102.729H108.534C108.7 15.1717 108.795 15.0759 108.795 14.9323C108.795 13.0496 108.677 12.2534 108.417 11.4342C107.776 9.45683 106.071 8.22729 103.727 8.22729C101.453 8.22729 99.7011 9.40845 99.06 11.4342C98.8245 12.1817 98.6814 13.0985 98.6814 14.3043C98.6814 15.5101 98.8474 16.4017 99.0853 17.1501C99.724 19.175 101.429 20.3808 103.845 20.3808C105.952 20.3808 107.564 19.5608 108.534 18.4033C108.628 18.2834 108.628 18.163 108.511 18.0654L107.114 16.8117C106.995 16.7154 106.877 16.7405 106.758 16.86C106.191 17.4875 105.362 17.9696 104.082 17.9696C102.804 17.9696 101.904 17.343 101.525 16.2101C101.468 16.0516 101.42 15.8852 101.39 15.7044C101.303 15.2135 101.253 14.7356 101.253 14.0337C101.27 13.3722 101.308 12.9497 101.401 12.4128C101.404 12.4053 101.405 12.3988 101.405 12.3919C101.406 12.3863 101.407 12.3821 101.408 12.3765V12.377C101.431 12.2506 101.462 12.1315 101.5 12.013C101.808 11.0726 102.661 10.5181 103.751 10.5181C104.818 10.5181 105.669 11.0726 105.976 12.013C106.071 12.304 106.119 12.5917 106.119 13.0027C106.119 13.0989 106.071 13.1463 105.976 13.1463H102.864V13.1458L102.668 13.1454Z" fill="#7347D2"/>
<path d="M80.4724 8.22729C78.6008 8.22729 77.3462 8.68519 76.4217 9.36056C76.3281 9.43404 76.3037 9.55301 76.3756 9.67342L77.2498 11.266C77.3232 11.3868 77.4633 11.4111 77.5827 11.3143C78.1278 10.8811 78.9084 10.5181 80.1884 10.5181C82.0544 10.5181 82.688 11.0889 82.7202 12.3435H82.7207V12.3589C82.7216 12.3881 82.7216 12.4179 82.7216 12.449V16.2116C82.7216 17.5378 81.822 18.1876 80.1884 18.1876C78.9084 18.1876 78.2223 17.7065 78.2223 16.7424C78.2223 15.6565 78.9807 15.173 80.6854 15.173L81.2036 15.174C81.3457 15.174 81.4411 15.0773 81.4411 14.9337V13.3876C81.4411 13.2434 81.3457 13.1473 81.2036 13.1473H81.0898L80.2594 13.1468C77.4412 13.1468 75.6868 14.3061 75.6868 16.8367C75.6868 19.2731 77.4412 20.3817 79.5244 20.3817C81.1336 20.3817 82.2001 19.8276 82.7451 19.0318H82.7682V19.8759C82.7682 20.021 82.8641 20.1177 83.0056 20.1177H84.9947C85.1373 20.1177 85.2322 20.0214 85.2322 19.8759V12.2794C85.2327 9.43403 83.9541 8.22729 80.4724 8.22729Z" fill="#7347D2"/>
<path d="M58.3296 8.22729C56.458 8.22729 55.2033 8.68519 54.2789 9.36056C54.1853 9.43404 54.1609 9.55301 54.2328 9.67342L55.107 11.266C55.1803 11.3868 55.3205 11.4111 55.4399 11.3143C55.9849 10.8811 56.7656 10.5181 58.0456 10.5181C59.9116 10.5181 60.5451 11.0889 60.5774 12.3435H60.5779V12.3589C60.5787 12.3881 60.5787 12.4179 60.5787 12.449V16.2116C60.5787 17.5378 59.6792 18.1876 58.0456 18.1876C56.7656 18.1876 56.0795 17.7065 56.0795 16.7424C56.0795 15.6565 56.8379 15.173 58.5426 15.173L59.0608 15.174C59.2029 15.174 59.2983 15.0773 59.2983 14.9337V13.3876C59.2983 13.2434 59.2029 13.1473 59.0608 13.1473H58.947L58.1166 13.1468C55.2984 13.1468 53.5439 14.3061 53.5439 16.8367C53.5439 19.2731 55.2984 20.3817 57.3816 20.3817C58.9908 20.3817 60.0573 19.8276 60.6023 19.0318H60.6254V19.8759C60.6254 20.021 60.7213 20.1177 60.8628 20.1177H62.8519C62.9944 20.1177 63.0894 20.0214 63.0894 19.8759V12.2794C63.0898 9.43403 61.8113 8.22729 58.3296 8.22729Z" fill="#7347D2"/>
<path d="M131.058 25.0516C130.916 25.0516 130.822 24.9549 130.822 24.8094V22.8808C130.822 22.7367 130.916 22.6386 131.058 22.6386H131.485C132.384 22.6386 132.836 22.2304 133.191 21.265L133.523 20.2762L129.353 9.32764C129.305 9.1826 129.4 9.08594 129.543 9.08594H131.888C132.029 9.08594 132.125 9.1826 132.171 9.32764L134.754 16.9242H134.801L137.265 9.32764C137.312 9.1826 137.407 9.08594 137.548 9.08594H139.797C139.941 9.08594 140.036 9.1826 139.987 9.32764L135.63 21.4337C134.635 24.1833 133.687 25.0507 131.793 25.0507L131.058 25.0516Z" fill="#7347D2"/>
<path d="M124.817 20.1167C124.675 20.1167 124.58 20.021 124.58 19.875V13.1714C124.58 11.676 123.845 10.6385 122.423 10.6385C121.05 10.6385 120.245 11.6755 120.245 13.1714V19.875C120.245 20.0205 120.149 20.1167 120.009 20.1167H117.828C117.686 20.1167 117.591 20.021 117.591 19.875V13.1714C117.591 11.676 116.857 10.6385 115.437 10.6385C114.064 10.6385 113.257 11.6755 113.257 13.1714V19.875C113.257 20.0205 113.162 20.1167 113.02 20.1167H110.841C110.698 20.1167 110.604 20.021 110.604 19.875V8.73348C110.604 8.58845 110.698 8.49178 110.841 8.49178H113.02C113.162 8.49178 113.257 8.58845 113.257 8.73348V9.57764H113.281C113.779 8.85389 114.773 8.22729 116.289 8.22729C117.64 8.22729 118.729 8.7809 119.415 9.77009H119.439C120.315 8.80648 121.453 8.22729 123.087 8.22729C125.739 8.22729 127.232 10.0597 127.232 12.5438V19.8746C127.232 20.0205 127.137 20.1167 126.995 20.1167H124.817Z" fill="#7347D2"/>
<path d="M64.9701 17.1743C64.7331 16.4495 64.6155 15.5348 64.6155 14.3047C64.6155 13.0743 64.7331 12.1576 64.9701 11.4347C65.6336 9.36056 67.3858 8.22729 69.6824 8.22729C71.3885 8.22729 72.7395 8.92689 73.639 10.0365C73.7096 10.1323 73.7341 10.2768 73.6146 10.373L72.1226 11.6997C72.004 11.7968 71.8865 11.7727 71.7914 11.6523C71.2234 11.0015 70.6309 10.6389 69.6824 10.6389C68.6648 10.6389 67.8828 11.1456 67.5518 12.1585C67.3617 12.7387 67.3157 13.4132 67.3157 14.3052C67.3157 15.1973 67.3617 15.8964 67.5518 16.4756C67.8828 17.4634 68.6648 17.9701 69.6824 17.9701C70.6309 17.9701 71.2234 17.608 71.7914 16.9586C71.8865 16.8363 72.0045 16.8363 72.1226 16.933L73.6146 18.2597C73.7341 18.3559 73.7096 18.4767 73.639 18.5976C72.7395 19.6835 71.3885 20.3822 69.6824 20.3822C67.3858 20.3812 65.6336 19.247 64.9701 17.1743Z" fill="#7347D2"/>
<path d="M13.5166 5.80659C13.5166 4.73378 14.2714 3.93439 15.23 3.93439C16.1684 3.93439 16.9232 4.73317 16.9232 5.80659C16.9232 6.85671 16.1684 7.63281 15.23 7.63281C14.2714 7.63281 13.5166 6.85671 13.5166 5.80659ZM16.6581 9.66439V20.5997H13.8228V9.66439H16.6581Z" fill="#7347D2"/>
<path d="M38.2142 20.0485C37.0437 20.4994 36.5191 20.5996 35.6108 20.5996C33.2696 20.5996 31.736 18.5444 31.736 15.4373V11.1519H29.6978V8.21982H31.736V3.93439H34.521V8.21982H38.0121V11.1519H34.521V15.4124C34.521 16.7658 35.187 17.3923 36.2161 17.3923C36.7407 17.3923 37.306 17.2422 37.8506 17.0666L38.2142 20.0485Z" fill="#7347D2"/>
</svg>
