<svg width="33" height="33" viewBox="0 0 33 33" fill="none" xmlns="http://www.w3.org/2000/svg">
<path d="M25.1667 25.25V23.4167C25.1667 21.7081 23.9981 20.2726 22.4167 19.8655M19.2083 9.01653C20.5521 9.56047 21.5 10.8779 21.5 12.4167C21.5 13.9555 20.5521 15.2729 19.2083 15.8168M20.5833 25.25C20.5833 23.5415 20.5833 22.6873 20.3042 22.0135C19.9321 21.1151 19.2183 20.4013 18.3198 20.0291C17.646 19.75 16.7918 19.75 15.0833 19.75H12.3333C10.6249 19.75 9.77066 19.75 9.09684 20.0291C8.1984 20.4013 7.4846 21.1151 7.11245 22.0135C6.83334 22.6873 6.83334 23.5415 6.83334 25.25M17.375 12.4167C17.375 14.4417 15.7334 16.0833 13.7083 16.0833C11.6833 16.0833 10.0417 14.4417 10.0417 12.4167C10.0417 10.3916 11.6833 8.75 13.7083 8.75C15.7334 8.75 17.375 10.3916 17.375 12.4167Z" stroke="black" stroke-width="2" stroke-linecap="round" stroke-linejoin="round"/>
<rect x="1" y="1" width="31" height="31" rx="6" stroke="#DBDDE1" stroke-width="2"/>
</svg>
