<svg width="33" height="33" viewBox="0 0 33 33" fill="none" xmlns="http://www.w3.org/2000/svg">
<path d="M23.3333 25.25C23.3333 23.9707 23.3333 23.3311 23.1754 22.8106C22.82 21.6387 21.9029 20.7217 20.731 20.3662C20.2106 20.2083 19.5709 20.2083 18.2917 20.2083H13.7083C12.4291 20.2083 11.7894 20.2083 11.2689 20.3662C10.0971 20.7217 9.18003 21.6387 8.82454 22.8106C8.66666 23.3311 8.66666 23.9707 8.66666 25.25M20.125 12.875C20.125 15.1532 18.2782 17 16 17C13.7218 17 11.875 15.1532 11.875 12.875C11.875 10.5968 13.7218 8.75 16 8.75C18.2782 8.75 20.125 10.5968 20.125 12.875Z" stroke="black" stroke-width="2" stroke-linecap="round" stroke-linejoin="round"/>
<rect x="1" y="1" width="31" height="31" rx="6" stroke="#DBDDE1" stroke-width="2"/>
</svg>
