<svg width="44" height="43" viewBox="0 0 44 43" fill="none" xmlns="http://www.w3.org/2000/svg">
<g clip-path="url(#clip0_52_19985)">
<rect x="0.5" width="43" height="43" rx="12" fill="white"/>
<rect x="0.5" width="43" height="43" rx="12" fill="url(#paint0_linear_52_19985)"/>
<path d="M18.1514 30.5534V32.25H17.3695C15.2765 32.25 13.873 31.9592 13.1587 31.378C12.4525 30.7967 12.0994 29.6384 12.0994 27.9023V25.0865C12.0994 23.9004 11.8724 23.0797 11.4188 22.6243C10.9648 22.1685 10.1411 21.9408 8.94753 21.9408H8.17847V20.256H8.94753C10.1496 20.256 10.9734 20.0321 11.4188 19.5843C11.8724 19.1288 12.0994 18.316 12.0994 17.1456V14.318C12.0994 12.5819 12.4525 11.4274 13.1587 10.8541C13.873 10.2728 15.2765 9.98218 17.3695 9.98215H18.1514V11.667H17.2939C16.1088 11.667 15.3355 11.8398 14.9742 12.1854C14.6126 12.531 14.432 13.2574 14.432 14.3652V17.287C14.432 18.5202 14.2387 19.4155 13.8519 19.9731C13.4736 20.5308 12.8223 20.9079 11.8977 21.1041C12.8308 21.3162 13.4862 21.7013 13.8645 22.2589C14.2428 22.8166 14.432 23.7081 14.432 24.9333V27.8552C14.432 28.9629 14.6126 29.6893 14.9742 30.0349C15.1381 30.1915 16.1088 30.5534 17.2939 30.5534H18.1514Z" fill="#FAF7FE"/>
<path d="M26.5899 30.5534V32.25H27.3714C29.4644 32.25 30.8682 31.9595 31.5826 31.3783C32.2888 30.797 32.6419 29.6384 32.6416 27.9026V25.0868C32.6419 23.9007 32.8685 23.0799 33.3225 22.6242C33.7765 22.1687 34.6003 21.941 35.7938 21.941H36.5627V20.2562H35.7938C34.5918 20.2562 33.768 20.0323 33.3225 19.5845C32.8685 19.129 32.6419 18.3159 32.6416 17.1457V14.3178C32.6419 12.582 32.2888 11.4274 31.5826 10.8539C30.8682 10.2728 29.4644 9.98218 27.3714 9.98215H26.5899V11.667H27.447C28.6324 11.667 29.4058 11.8398 29.767 12.1855C30.1286 12.5311 30.3093 13.2576 30.3093 14.365V17.2868C30.3093 18.52 30.5025 19.4157 30.889 19.9733C31.2673 20.531 31.919 20.9081 32.8433 21.1043C31.9105 21.3164 31.2547 21.7012 30.8768 22.2588C30.4984 22.8165 30.3093 23.7083 30.3093 24.9336V27.8554C30.3093 28.9628 30.1286 29.6896 29.767 30.0352C29.4058 30.3808 28.6324 30.5534 27.447 30.5534H26.5899Z" fill="#FAF7FE"/>
<path d="M18.4708 23.539C18.2573 22.8908 18.1514 22.0728 18.1514 20.9727C18.1514 19.8723 18.2573 19.0525 18.4708 18.406C19.0672 16.551 20.6471 15.5375 22.7159 15.5375C24.2523 15.5375 25.4688 16.1632 26.2804 17.1555C26.3431 17.2412 26.3643 17.3705 26.2588 17.4565L24.9151 18.643C24.808 18.7299 24.7017 18.7083 24.6157 18.6006C24.1032 18.0186 23.5699 17.6943 22.7164 17.6943C21.7993 17.6943 21.0957 18.1474 20.7962 19.0533C20.6268 19.5722 20.5832 20.1754 20.5832 20.9732C20.5832 21.7709 20.6264 22.3962 20.7962 22.9141C21.0953 23.7976 21.7993 24.2507 22.7164 24.2507C23.5699 24.2507 24.1032 23.9269 24.6157 23.3461C24.7017 23.2368 24.808 23.2368 24.9151 23.3232L26.2588 24.5097C26.3643 24.5958 26.3431 24.7038 26.2804 24.812C25.4692 25.7831 24.2527 26.4079 22.7159 26.4079C20.6471 26.4071 19.0672 25.3927 18.4708 23.539Z" fill="#FAF7FE"/>
<g filter="url(#filter0_b_52_19985)">
<path d="M1.00269 24.1152L42.9775 24.0623V24.0623C42.9858 30.6893 42.99 34.0027 41.7205 36.5428C40.5637 38.8574 38.6898 40.736 36.3782 41.8986C33.8413 43.1745 30.5278 43.1787 23.9009 43.187L20.1274 43.1918C13.5005 43.2001 10.187 43.2043 7.64688 41.9348C5.33235 40.778 3.45372 38.9041 2.29112 36.5925C1.0152 34.0556 1.01103 30.7421 1.00269 24.1152V24.1152Z" fill="white" fill-opacity="0.19"/>
</g>
</g>
<rect x="0.725" y="0.225" width="42.55" height="42.55" rx="11.775" stroke="#D0D5DD" stroke-width="0.45"/>
<defs>
<filter id="filter0_b_52_19985" x="-1.99731" y="21.0623" width="47.9988" height="25.1535" filterUnits="userSpaceOnUse" color-interpolation-filters="sRGB">
<feFlood flood-opacity="0" result="BackgroundImageFix"/>
<feGaussianBlur in="BackgroundImageFix" stdDeviation="1.5"/>
<feComposite in2="SourceAlpha" operator="in" result="effect1_backgroundBlur_52_19985"/>
<feBlend mode="normal" in="SourceGraphic" in2="effect1_backgroundBlur_52_19985" result="shape"/>
</filter>
<linearGradient id="paint0_linear_52_19985" x1="22" y1="0" x2="22" y2="43" gradientUnits="userSpaceOnUse">
<stop stop-color="#7F56D9"/>
<stop offset="1" stop-color="#523A87"/>
</linearGradient>
<clipPath id="clip0_52_19985">
<rect x="0.5" width="43" height="43" rx="12" fill="white"/>
</clipPath>
</defs>
</svg>
